<svg width="100" height="100" viewBox="0 0 100 100" fill="none" xmlns="http://www.w3.org/2000/svg">
<rect x="47" y="57" width="3" height="11" fill="#E02929"/>
<rect x="48" y="55" width="1" height="17" fill="#E02929"/>
<rect x="46" y="62" width="5" height="0.2" fill="#9A9A9A"/>
<rect x="40" y="57" width="3" height="11" fill="#59BB2B"/>
<rect x="41" y="53" width="1" height="17" fill="#59BB2B"/>
<rect x="39" y="62" width="5" height="0.2" fill="#9A9A9A"/>
<rect width="100" height="100" rx="20" fill="black"/>
<path d="M12.2 43.31C13.3 43.43 14.18 43.625 14.84 43.895C15.51 44.165 15.995 44.52 16.295 44.96C16.595 45.4 16.745 45.95 16.745 46.61C16.745 47.33 16.51 47.96 16.04 48.5C15.58 49.03 14.94 49.44 14.12 49.73C13.3 50.01 12.365 50.15 11.315 50.15C10.145 50.15 9.155 50.005 8.345 49.715C7.535 49.425 6.93 49.04 6.53 48.56C6.13 48.07 5.93 47.535 5.93 46.955C5.93 46.855 5.96 46.775 6.02 46.715C6.09 46.655 6.175 46.625 6.275 46.625H9.35C9.56 46.625 9.73 46.69 9.86 46.82C10.03 46.98 10.22 47.09 10.43 47.15C10.64 47.2 10.935 47.225 11.315 47.225C12.265 47.225 12.74 47.08 12.74 46.79C12.74 46.67 12.675 46.57 12.545 46.49C12.425 46.4 12.205 46.325 11.885 46.265C11.575 46.195 11.115 46.125 10.505 46.055C9.135 45.895 8.085 45.555 7.355 45.035C6.625 44.505 6.26 43.76 6.26 42.8C6.26 42.12 6.465 41.52 6.875 41C7.285 40.48 7.865 40.075 8.615 39.785C9.375 39.495 10.255 39.35 11.255 39.35C12.295 39.35 13.205 39.515 13.985 39.845C14.765 40.165 15.36 40.565 15.77 41.045C16.18 41.525 16.385 41.995 16.385 42.455C16.385 42.555 16.35 42.635 16.28 42.695C16.22 42.755 16.135 42.785 16.025 42.785H12.8C12.63 42.785 12.475 42.725 12.335 42.605C12.225 42.505 12.095 42.425 11.945 42.365C11.795 42.305 11.565 42.275 11.255 42.275C10.585 42.275 10.25 42.415 10.25 42.695C10.25 42.845 10.38 42.965 10.64 43.055C10.9 43.135 11.42 43.22 12.2 43.31ZM29.2941 39.5C29.4041 39.5 29.4991 39.54 29.5791 39.62C29.6591 39.7 29.6991 39.795 29.6991 39.905V42.32C29.6991 42.43 29.6591 42.525 29.5791 42.605C29.4991 42.685 29.4041 42.725 29.2941 42.725H26.0691V49.595C26.0691 49.705 26.0291 49.8 25.9491 49.88C25.8691 49.96 25.7741 50 25.6641 50H22.5741C22.4641 50 22.3691 49.96 22.2891 49.88C22.2091 49.8 22.1691 49.705 22.1691 49.595V42.725H18.9441C18.8341 42.725 18.7391 42.685 18.6591 42.605C18.5791 42.525 18.5391 42.43 18.5391 42.32V39.905C18.5391 39.795 18.5791 39.7 18.6591 39.62C18.7391 39.54 18.8341 39.5 18.9441 39.5H29.2941ZM42.4433 45.665C42.4433 47.195 41.9333 48.325 40.9133 49.055C39.9033 49.785 38.5533 50.15 36.8633 50.15C35.1733 50.15 33.8183 49.785 32.7983 49.055C31.7883 48.325 31.2833 47.185 31.2833 45.635V43.865C31.2833 42.845 31.5233 42 32.0033 41.33C32.4933 40.65 33.1583 40.15 33.9983 39.83C34.8383 39.51 35.7933 39.35 36.8633 39.35C37.9333 39.35 38.8833 39.51 39.7133 39.83C40.5533 40.15 41.2183 40.645 41.7083 41.315C42.1983 41.985 42.4433 42.825 42.4433 43.835V45.665ZM35.3333 45.95C35.3333 46.36 35.4683 46.675 35.7383 46.895C36.0183 47.115 36.3933 47.225 36.8633 47.225C37.3333 47.225 37.7033 47.115 37.9733 46.895C38.2533 46.665 38.3933 46.345 38.3933 45.935V43.565C38.3933 43.155 38.2533 42.84 37.9733 42.62C37.7033 42.39 37.3333 42.275 36.8633 42.275C36.3933 42.275 36.0183 42.385 35.7383 42.605C35.4683 42.825 35.3333 43.14 35.3333 43.55V45.95ZM48.2274 45.95C48.2274 46.36 48.3624 46.675 48.6324 46.895C48.9124 47.115 49.2874 47.225 49.7574 47.225C50.1774 47.225 50.4874 47.155 50.6874 47.015C50.8874 46.875 51.0574 46.665 51.1974 46.385C51.3274 46.125 51.5024 45.995 51.7224 45.995H54.9624C55.0524 45.995 55.1274 46.03 55.1874 46.1C55.2574 46.16 55.2924 46.235 55.2924 46.325C55.2924 46.935 55.0874 47.535 54.6774 48.125C54.2674 48.705 53.6424 49.19 52.8024 49.58C51.9724 49.96 50.9574 50.15 49.7574 50.15C48.6874 50.15 47.7324 49.99 46.8924 49.67C46.0624 49.34 45.4024 48.84 44.9124 48.17C44.4224 47.49 44.1774 46.645 44.1774 45.635V43.865C44.1774 42.855 44.4224 42.015 44.9124 41.345C45.4024 40.665 46.0624 40.165 46.8924 39.845C47.7324 39.515 48.6874 39.35 49.7574 39.35C50.9574 39.35 51.9724 39.545 52.8024 39.935C53.6424 40.315 54.2674 40.8 54.6774 41.39C55.0874 41.97 55.2924 42.565 55.2924 43.175C55.2924 43.265 55.2574 43.345 55.1874 43.415C55.1274 43.475 55.0524 43.505 54.9624 43.505H51.7224C51.5024 43.505 51.3274 43.375 51.1974 43.115C51.0574 42.835 50.8874 42.625 50.6874 42.485C50.4874 42.345 50.1774 42.275 49.7574 42.275C49.2874 42.275 48.9124 42.385 48.6324 42.605C48.3624 42.825 48.2274 43.14 48.2274 43.55V45.95ZM68.5466 49.475C68.5866 49.535 68.6066 49.6 68.6066 49.67C68.6066 49.76 68.5716 49.84 68.5016 49.91C68.4416 49.97 68.3666 50 68.2766 50H64.4066C64.1766 50 63.9966 49.92 63.8666 49.76L61.2566 46.535V49.595C61.2566 49.705 61.2166 49.8 61.1366 49.88C61.0566 49.96 60.9616 50 60.8516 50H57.7616C57.6516 50 57.5566 49.96 57.4766 49.88C57.3966 49.8 57.3566 49.705 57.3566 49.595V39.905C57.3566 39.795 57.3966 39.7 57.4766 39.62C57.5566 39.54 57.6516 39.5 57.7616 39.5H60.8516C60.9616 39.5 61.0566 39.54 61.1366 39.62C61.2166 39.7 61.2566 39.795 61.2566 39.905V42.725L63.6266 39.755C63.7766 39.585 63.9616 39.5 64.1816 39.5H67.7966C67.8866 39.5 67.9616 39.535 68.0216 39.605C68.0916 39.665 68.1266 39.74 68.1266 39.83C68.1266 39.91 68.1016 39.98 68.0516 40.04L64.4966 44.375L68.5466 49.475ZM77.1357 46.925H79.8507C79.9607 46.925 80.0557 46.965 80.1357 47.045C80.2157 47.125 80.2557 47.22 80.2557 47.33V49.595C80.2557 49.705 80.2157 49.8 80.1357 49.88C80.0557 49.96 79.9607 50 79.8507 50H70.3407C70.2307 50 70.1357 49.96 70.0557 49.88C69.9757 49.8 69.9357 49.705 69.9357 49.595V47.33C69.9357 47.22 69.9757 47.125 70.0557 47.045C70.1357 46.965 70.2307 46.925 70.3407 46.925H73.0857V42.575H70.3407C70.2307 42.575 70.1357 42.535 70.0557 42.455C69.9757 42.375 69.9357 42.28 69.9357 42.17V39.905C69.9357 39.795 69.9757 39.7 70.0557 39.62C70.1357 39.54 70.2307 39.5 70.3407 39.5H79.8507C79.9607 39.5 80.0557 39.54 80.1357 39.62C80.2157 39.7 80.2557 39.795 80.2557 39.905V42.17C80.2557 42.28 80.2157 42.375 80.1357 42.455C80.0557 42.535 79.9607 42.575 79.8507 42.575H77.1357V46.925ZM92.6998 47.075C92.8098 47.075 92.9048 47.115 92.9848 47.195C93.0648 47.275 93.1048 47.37 93.1048 47.48V49.595C93.1048 49.705 93.0648 49.8 92.9848 49.88C92.9048 49.96 92.8098 50 92.6998 50H83.2198C83.1098 50 83.0148 49.96 82.9348 49.88C82.8548 49.8 82.8148 49.705 82.8148 49.595V39.905C82.8148 39.795 82.8548 39.7 82.9348 39.62C83.0148 39.54 83.1098 39.5 83.2198 39.5H92.5498C92.6598 39.5 92.7548 39.54 92.8348 39.62C92.9148 39.7 92.9548 39.795 92.9548 39.905V42.02C92.9548 42.13 92.9148 42.225 92.8348 42.305C92.7548 42.385 92.6598 42.425 92.5498 42.425H86.7148V43.37H91.7248C91.8348 43.37 91.9298 43.41 92.0098 43.49C92.0898 43.57 92.1298 43.665 92.1298 43.775V45.725C92.1298 45.835 92.0898 45.93 92.0098 46.01C91.9298 46.09 91.8348 46.13 91.7248 46.13H86.7148V47.075H92.6998Z" fill="white"/>
<rect x="52" y="57" width="3" height="11" fill="#E02929"/>
<rect x="53" y="55" width="1" height="17" fill="#E02929"/>
<rect x="51" y="62" width="5" height="0.2" fill="#9A9A9A"/>
<rect x="45" y="57" width="3" height="11" fill="#59BB2B"/>
<rect x="46" y="53" width="1" height="17" fill="#59BB2B"/>
<rect x="44" y="62" width="5" height="0.2" fill="#9A9A9A"/>
<path d="M37.555 78.175C37.685 78.215 37.7967 78.3033 37.89 78.44C37.9833 78.5733 38.03 78.7267 38.03 78.9C38.03 79.27 37.91 79.5467 37.67 79.73C37.43 79.91 37.08 80 36.62 80H34.56C34.5233 80 34.4917 79.9867 34.465 79.96C34.4383 79.9333 34.425 79.9017 34.425 79.865V76.635C34.425 76.5983 34.4383 76.5667 34.465 76.54C34.4917 76.5133 34.5233 76.5 34.56 76.5H36.57C37.0433 76.5 37.3917 76.5867 37.615 76.76C37.8417 76.93 37.955 77.1883 37.955 77.535V77.55C37.955 77.71 37.9117 77.8467 37.825 77.96C37.7383 78.0733 37.6483 78.145 37.555 78.175ZM36.6 77.58C36.6 77.52 36.5817 77.4683 36.545 77.425C36.5117 77.3817 36.4617 77.36 36.395 77.36H35.725V77.815H36.395C36.4617 77.815 36.5117 77.7917 36.545 77.745C36.5817 77.695 36.6 77.64 36.6 77.58ZM36.45 79.14C36.5267 79.14 36.5833 79.115 36.62 79.065C36.66 79.0117 36.68 78.9533 36.68 78.89V78.885C36.68 78.8217 36.6583 78.7667 36.615 78.72C36.575 78.6733 36.52 78.65 36.45 78.65H35.725V79.14H36.45ZM42.203 76.5C42.233 76.5 42.258 76.5117 42.278 76.535C42.3014 76.555 42.313 76.5783 42.313 76.605C42.313 76.625 42.308 76.645 42.298 76.665L41.038 78.75V79.865C41.038 79.9017 41.0247 79.9333 40.998 79.96C40.9714 79.9867 40.9397 80 40.903 80H39.838C39.8014 80 39.7697 79.9867 39.743 79.96C39.7164 79.9333 39.703 79.9017 39.703 79.865V78.75L38.448 76.665C38.438 76.645 38.433 76.6267 38.433 76.61C38.433 76.58 38.443 76.555 38.463 76.535C38.4864 76.5117 38.513 76.5 38.543 76.5H39.598C39.6914 76.5 39.7597 76.5383 39.803 76.615L40.368 77.605L40.948 76.625C40.998 76.5417 41.068 76.5 41.158 76.5H42.203ZM48.8541 76.5C49.4175 76.5 49.8675 76.6217 50.2041 76.865C50.5441 77.1083 50.7141 77.485 50.7141 77.995V78.505C50.7141 79.025 50.5458 79.405 50.2091 79.645C49.8758 79.8817 49.4241 80 48.8541 80H47.2591C47.2225 80 47.1908 79.9867 47.1641 79.96C47.1375 79.9333 47.1241 79.9017 47.1241 79.865V76.635C47.1241 76.5983 47.1375 76.5667 47.1641 76.54C47.1908 76.5133 47.2225 76.5 47.2591 76.5H48.8541ZM48.8791 79.025C49.0358 79.025 49.1591 78.9883 49.2491 78.915C49.3425 78.8383 49.3891 78.7317 49.3891 78.595V77.905C49.3891 77.7683 49.3425 77.6633 49.2491 77.59C49.1591 77.5133 49.0358 77.475 48.8791 77.475H48.4241V79.025H48.8791ZM54.9772 78.555C54.9772 79.065 54.8072 79.4417 54.4672 79.685C54.1305 79.9283 53.6805 80.05 53.1172 80.05C52.5539 80.05 52.1022 79.9283 51.7622 79.685C51.4255 79.4417 51.2572 79.0617 51.2572 78.545V77.955C51.2572 77.615 51.3372 77.3333 51.4972 77.11C51.6605 76.8833 51.8822 76.7167 52.1622 76.61C52.4422 76.5033 52.7605 76.45 53.1172 76.45C53.4739 76.45 53.7905 76.5033 54.0672 76.61C54.3472 76.7167 54.5689 76.8817 54.7322 77.105C54.8955 77.3283 54.9772 77.6083 54.9772 77.945V78.555ZM52.6072 78.65C52.6072 78.7867 52.6522 78.8917 52.7422 78.965C52.8355 79.0383 52.9605 79.075 53.1172 79.075C53.2739 79.075 53.3972 79.0383 53.4872 78.965C53.5805 78.8883 53.6272 78.7817 53.6272 78.645V77.855C53.6272 77.7183 53.5805 77.6133 53.4872 77.54C53.3972 77.4633 53.2739 77.425 53.1172 77.425C52.9605 77.425 52.8355 77.4617 52.7422 77.535C52.6522 77.6083 52.6072 77.7133 52.6072 77.85V78.65ZM58.9302 76.5C58.9669 76.5 58.9986 76.5133 59.0252 76.54C59.0519 76.5667 59.0652 76.5983 59.0652 76.635V79.865C59.0652 79.9017 59.0519 79.9333 59.0252 79.96C58.9986 79.9867 58.9669 80 58.9302 80H58.1252C58.0452 80 57.9786 79.965 57.9252 79.895L56.8352 78.505V79.865C56.8352 79.9017 56.8219 79.9333 56.7952 79.96C56.7686 79.9867 56.7369 80 56.7002 80H55.7702C55.7336 80 55.7019 79.9867 55.6752 79.96C55.6486 79.9333 55.6352 79.9017 55.6352 79.865V76.635C55.6352 76.5983 55.6486 76.5667 55.6752 76.54C55.7019 76.5133 55.7336 76.5 55.7702 76.5H56.5802C56.6602 76.5 56.7252 76.5333 56.7752 76.6L57.8652 78.105V76.635C57.8652 76.5983 57.8786 76.5667 57.9052 76.54C57.9319 76.5133 57.9636 76.5 58.0002 76.5H58.9302ZM63.3283 78.545C63.3283 79.0517 63.1616 79.43 62.8283 79.68C62.4949 79.9267 62.0499 80.05 61.4933 80.05C61.0933 80.05 60.7516 79.9867 60.4683 79.86C60.1883 79.73 59.9766 79.5667 59.8333 79.37C59.6933 79.1733 59.6233 78.975 59.6233 78.775C59.6233 78.745 59.6333 78.72 59.6533 78.7C59.6766 78.6767 59.7033 78.665 59.7333 78.665H60.8633C60.8933 78.665 60.9183 78.675 60.9383 78.695C60.9616 78.715 60.9783 78.7417 60.9883 78.775C61.0516 78.975 61.2116 79.075 61.4683 79.075C61.6249 79.075 61.7483 79.0383 61.8383 78.965C61.9316 78.8917 61.9783 78.7867 61.9783 78.65V77.525H60.1533C60.1166 77.525 60.0849 77.5117 60.0583 77.485C60.0316 77.4583 60.0183 77.4267 60.0183 77.39V76.635C60.0183 76.5983 60.0316 76.5667 60.0583 76.54C60.0849 76.5133 60.1166 76.5 60.1533 76.5H63.1933C63.2299 76.5 63.2616 76.5133 63.2883 76.54C63.3149 76.5667 63.3283 76.5983 63.3283 76.635V78.545ZM65.1413 79.83C65.098 79.9433 65.023 80 64.9163 80H63.9713C63.9413 80 63.9147 79.99 63.8913 79.97C63.8713 79.9467 63.8613 79.92 63.8613 79.89L63.8663 79.86L64.9563 76.665C64.9697 76.6217 64.9947 76.5833 65.0313 76.55C65.068 76.5167 65.118 76.5 65.1813 76.5H66.5713C66.6347 76.5 66.6847 76.5167 66.7213 76.55C66.758 76.5833 66.783 76.6217 66.7963 76.665L67.8863 79.86L67.8913 79.89C67.8913 79.92 67.8797 79.9467 67.8563 79.97C67.8363 79.99 67.8113 80 67.7813 80H66.8363C66.7297 80 66.6547 79.9433 66.6113 79.83L66.4863 79.48H65.2663L65.1413 79.83ZM65.8763 77.465L65.5213 78.505H66.2313L65.8763 77.465Z" fill="white"/>
</svg>
