<svg width="100" height="50" viewBox="0 0 100 50" fill="none" xmlns="http://www.w3.org/2000/svg">
<rect width="100" height="50" fill="#121826"/>
<path d="M12.2 9.31C13.3 9.43 14.18 9.625 14.84 9.895C15.51 10.165 15.995 10.52 16.295 10.96C16.595 11.4 16.745 11.95 16.745 12.61C16.745 13.33 16.51 13.96 16.04 14.5C15.58 15.03 14.94 15.44 14.12 15.73C13.3 16.01 12.365 16.15 11.315 16.15C10.145 16.15 9.155 16.005 8.345 15.715C7.535 15.425 6.93 15.04 6.53 14.56C6.13 14.07 5.93 13.535 5.93 12.955C5.93 12.855 5.96 12.775 6.02 12.715C6.09 12.655 6.175 12.625 6.275 12.625H9.35C9.56 12.625 9.73 12.69 9.86 12.82C10.03 12.98 10.22 13.09 10.43 13.15C10.64 13.2 10.935 13.225 11.315 13.225C12.265 13.225 12.74 13.08 12.74 12.79C12.74 12.67 12.675 12.57 12.545 12.49C12.425 12.4 12.205 12.325 11.885 12.265C11.575 12.195 11.115 12.125 10.505 12.055C9.135 11.895 8.085 11.555 7.355 11.035C6.625 10.505 6.26 9.76 6.26 8.8C6.26 8.12 6.465 7.52 6.875 7C7.285 6.48 7.865 6.075 8.615 5.785C9.375 5.495 10.255 5.35 11.255 5.35C12.295 5.35 13.205 5.515 13.985 5.845C14.765 6.165 15.36 6.565 15.77 7.045C16.18 7.525 16.385 7.995 16.385 8.455C16.385 8.555 16.35 8.635 16.28 8.695C16.22 8.755 16.135 8.785 16.025 8.785H12.8C12.63 8.785 12.475 8.725 12.335 8.605C12.225 8.505 12.095 8.425 11.945 8.365C11.795 8.305 11.565 8.275 11.255 8.275C10.585 8.275 10.25 8.415 10.25 8.695C10.25 8.845 10.38 8.965 10.64 9.055C10.9 9.135 11.42 9.22 12.2 9.31ZM29.2941 5.5C29.4041 5.5 29.4991 5.54 29.5791 5.62C29.6591 5.7 29.6991 5.795 29.6991 5.905V8.32C29.6991 8.43 29.6591 8.525 29.5791 8.605C29.4991 8.685 29.4041 8.725 29.2941 8.725H26.0691V15.595C26.0691 15.705 26.0291 15.8 25.9491 15.88C25.8691 15.96 25.7741 16 25.6641 16H22.5741C22.4641 16 22.3691 15.96 22.2891 15.88C22.2091 15.8 22.1691 15.705 22.1691 15.595V8.725H18.9441C18.8341 8.725 18.7391 8.685 18.6591 8.605C18.5791 8.525 18.5391 8.43 18.5391 8.32V5.905C18.5391 5.795 18.5791 5.7 18.6591 5.62C18.7391 5.54 18.8341 5.5 18.9441 5.5H29.2941ZM42.4433 11.665C42.4433 13.195 41.9333 14.325 40.9133 15.055C39.9033 15.785 38.5533 16.15 36.8633 16.15C35.1733 16.15 33.8183 15.785 32.7983 15.055C31.7883 14.325 31.2833 13.185 31.2833 11.635V9.865C31.2833 8.845 31.5233 8 32.0033 7.33C32.4933 6.65 33.1583 6.15 33.9983 5.83C34.8383 5.51 35.7933 5.35 36.8633 5.35C37.9333 5.35 38.8833 5.51 39.7133 5.83C40.5533 6.15 41.2183 6.645 41.7083 7.315C42.1983 7.985 42.4433 8.825 42.4433 9.835V11.665ZM35.3333 11.95C35.3333 12.36 35.4683 12.675 35.7383 12.895C36.0183 13.115 36.3933 13.225 36.8633 13.225C37.3333 13.225 37.7033 13.115 37.9733 12.895C38.2533 12.665 38.3933 12.345 38.3933 11.935V9.565C38.3933 9.155 38.2533 8.84 37.9733 8.62C37.7033 8.39 37.3333 8.275 36.8633 8.275C36.3933 8.275 36.0183 8.385 35.7383 8.605C35.4683 8.825 35.3333 9.14 35.3333 9.55V11.95ZM48.2274 11.95C48.2274 12.36 48.3624 12.675 48.6324 12.895C48.9124 13.115 49.2874 13.225 49.7574 13.225C50.1774 13.225 50.4874 13.155 50.6874 13.015C50.8874 12.875 51.0574 12.665 51.1974 12.385C51.3274 12.125 51.5024 11.995 51.7224 11.995H54.9624C55.0524 11.995 55.1274 12.03 55.1874 12.1C55.2574 12.16 55.2924 12.235 55.2924 12.325C55.2924 12.935 55.0874 13.535 54.6774 14.125C54.2674 14.705 53.6424 15.19 52.8024 15.58C51.9724 15.96 50.9574 16.15 49.7574 16.15C48.6874 16.15 47.7324 15.99 46.8924 15.67C46.0624 15.34 45.4024 14.84 44.9124 14.17C44.4224 13.49 44.1774 12.645 44.1774 11.635V9.865C44.1774 8.855 44.4224 8.015 44.9124 7.345C45.4024 6.665 46.0624 6.165 46.8924 5.845C47.7324 5.515 48.6874 5.35 49.7574 5.35C50.9574 5.35 51.9724 5.545 52.8024 5.935C53.6424 6.315 54.2674 6.8 54.6774 7.39C55.0874 7.97 55.2924 8.565 55.2924 9.175C55.2924 9.265 55.2574 9.345 55.1874 9.415C55.1274 9.475 55.0524 9.505 54.9624 9.505H51.7224C51.5024 9.505 51.3274 9.375 51.1974 9.115C51.0574 8.835 50.8874 8.625 50.6874 8.485C50.4874 8.345 50.1774 8.275 49.7574 8.275C49.2874 8.275 48.9124 8.385 48.6324 8.605C48.3624 8.825 48.2274 9.14 48.2274 9.55V11.95ZM68.5466 15.475C68.5866 15.535 68.6066 15.6 68.6066 15.67C68.6066 15.76 68.5716 15.84 68.5016 15.91C68.4416 15.97 68.3666 16 68.2766 16H64.4066C64.1766 16 63.9966 15.92 63.8666 15.76L61.2566 12.535V15.595C61.2566 15.705 61.2166 15.8 61.1366 15.88C61.0566 15.96 60.9616 16 60.8516 16H57.7616C57.6516 16 57.5566 15.96 57.4766 15.88C57.3966 15.8 57.3566 15.705 57.3566 15.595V5.905C57.3566 5.795 57.3966 5.7 57.4766 5.62C57.5566 5.54 57.6516 5.5 57.7616 5.5H60.8516C60.9616 5.5 61.0566 5.54 61.1366 5.62C61.2166 5.7 61.2566 5.795 61.2566 5.905V8.725L63.6266 5.755C63.7766 5.585 63.9616 5.5 64.1816 5.5H67.7966C67.8866 5.5 67.9616 5.535 68.0216 5.605C68.0916 5.665 68.1266 5.74 68.1266 5.83C68.1266 5.91 68.1016 5.98 68.0516 6.04L64.4966 10.375L68.5466 15.475ZM77.1357 12.925H79.8507C79.9607 12.925 80.0557 12.965 80.1357 13.045C80.2157 13.125 80.2557 13.22 80.2557 13.33V15.595C80.2557 15.705 80.2157 15.8 80.1357 15.88C80.0557 15.96 79.9607 16 79.8507 16H70.3407C70.2307 16 70.1357 15.96 70.0557 15.88C69.9757 15.8 69.9357 15.705 69.9357 15.595V13.33C69.9357 13.22 69.9757 13.125 70.0557 13.045C70.1357 12.965 70.2307 12.925 70.3407 12.925H73.0857V8.575H70.3407C70.2307 8.575 70.1357 8.535 70.0557 8.455C69.9757 8.375 69.9357 8.28 69.9357 8.17V5.905C69.9357 5.795 69.9757 5.7 70.0557 5.62C70.1357 5.54 70.2307 5.5 70.3407 5.5H79.8507C79.9607 5.5 80.0557 5.54 80.1357 5.62C80.2157 5.7 80.2557 5.795 80.2557 5.905V8.17C80.2557 8.28 80.2157 8.375 80.1357 8.455C80.0557 8.535 79.9607 8.575 79.8507 8.575H77.1357V12.925ZM92.6998 13.075C92.8098 13.075 92.9048 13.115 92.9848 13.195C93.0648 13.275 93.1048 13.37 93.1048 13.48V15.595C93.1048 15.705 93.0648 15.8 92.9848 15.88C92.9048 15.96 92.8098 16 92.6998 16H83.2198C83.1098 16 83.0148 15.96 82.9348 15.88C82.8548 15.8 82.8148 15.705 82.8148 15.595V5.905C82.8148 5.795 82.8548 5.7 82.9348 5.62C83.0148 5.54 83.1098 5.5 83.2198 5.5H92.5498C92.6598 5.5 92.7548 5.54 92.8348 5.62C92.9148 5.7 92.9548 5.795 92.9548 5.905V8.02C92.9548 8.13 92.9148 8.225 92.8348 8.305C92.7548 8.385 92.6598 8.425 92.5498 8.425H86.7148V9.37H91.7248C91.8348 9.37 91.9298 9.41 92.0098 9.49C92.0898 9.57 92.1298 9.665 92.1298 9.775V11.725C92.1298 11.835 92.0898 11.93 92.0098 12.01C91.9298 12.09 91.8348 12.13 91.7248 12.13H86.7148V13.075H92.6998Z" fill="white"/>
<rect x="52" y="23" width="3" height="11" fill="#E02929"/>
<rect x="53" y="21" width="1" height="17" fill="#E02929"/>
<rect x="51" y="28" width="5" height="0.2" fill="#9A9A9A"/>
<rect x="45" y="23" width="3" height="11" fill="#59BB2B"/>
<rect x="46" y="19" width="1" height="17" fill="#59BB2B"/>
<rect x="44" y="28" width="5" height="0.2" fill="#9A9A9A"/>
<path d="M37.555 44.175C37.685 44.215 37.7967 44.3033 37.89 44.44C37.9833 44.5733 38.03 44.7267 38.03 44.9C38.03 45.27 37.91 45.5467 37.67 45.73C37.43 45.91 37.08 46 36.62 46H34.56C34.5233 46 34.4917 45.9867 34.465 45.96C34.4383 45.9333 34.425 45.9017 34.425 45.865V42.635C34.425 42.5983 34.4383 42.5667 34.465 42.54C34.4917 42.5133 34.5233 42.5 34.56 42.5H36.57C37.0433 42.5 37.3917 42.5867 37.615 42.76C37.8417 42.93 37.955 43.1883 37.955 43.535V43.55C37.955 43.71 37.9117 43.8467 37.825 43.96C37.7383 44.0733 37.6483 44.145 37.555 44.175ZM36.6 43.58C36.6 43.52 36.5817 43.4683 36.545 43.425C36.5117 43.3817 36.4617 43.36 36.395 43.36H35.725V43.815H36.395C36.4617 43.815 36.5117 43.7917 36.545 43.745C36.5817 43.695 36.6 43.64 36.6 43.58ZM36.45 45.14C36.5267 45.14 36.5833 45.115 36.62 45.065C36.66 45.0117 36.68 44.9533 36.68 44.89V44.885C36.68 44.8217 36.6583 44.7667 36.615 44.72C36.575 44.6733 36.52 44.65 36.45 44.65H35.725V45.14H36.45ZM42.203 42.5C42.233 42.5 42.258 42.5117 42.278 42.535C42.3014 42.555 42.313 42.5783 42.313 42.605C42.313 42.625 42.308 42.645 42.298 42.665L41.038 44.75V45.865C41.038 45.9017 41.0247 45.9333 40.998 45.96C40.9714 45.9867 40.9397 46 40.903 46H39.838C39.8014 46 39.7697 45.9867 39.743 45.96C39.7164 45.9333 39.703 45.9017 39.703 45.865V44.75L38.448 42.665C38.438 42.645 38.433 42.6267 38.433 42.61C38.433 42.58 38.443 42.555 38.463 42.535C38.4864 42.5117 38.513 42.5 38.543 42.5H39.598C39.6914 42.5 39.7597 42.5383 39.803 42.615L40.368 43.605L40.948 42.625C40.998 42.5417 41.068 42.5 41.158 42.5H42.203ZM48.8541 42.5C49.4175 42.5 49.8675 42.6217 50.2041 42.865C50.5441 43.1083 50.7141 43.485 50.7141 43.995V44.505C50.7141 45.025 50.5458 45.405 50.2091 45.645C49.8758 45.8817 49.4241 46 48.8541 46H47.2591C47.2225 46 47.1908 45.9867 47.1641 45.96C47.1375 45.9333 47.1241 45.9017 47.1241 45.865V42.635C47.1241 42.5983 47.1375 42.5667 47.1641 42.54C47.1908 42.5133 47.2225 42.5 47.2591 42.5H48.8541ZM48.8791 45.025C49.0358 45.025 49.1591 44.9883 49.2491 44.915C49.3425 44.8383 49.3891 44.7317 49.3891 44.595V43.905C49.3891 43.7683 49.3425 43.6633 49.2491 43.59C49.1591 43.5133 49.0358 43.475 48.8791 43.475H48.4241V45.025H48.8791ZM54.9772 44.555C54.9772 45.065 54.8072 45.4417 54.4672 45.685C54.1305 45.9283 53.6805 46.05 53.1172 46.05C52.5539 46.05 52.1022 45.9283 51.7622 45.685C51.4255 45.4417 51.2572 45.0617 51.2572 44.545V43.955C51.2572 43.615 51.3372 43.3333 51.4972 43.11C51.6605 42.8833 51.8822 42.7167 52.1622 42.61C52.4422 42.5033 52.7605 42.45 53.1172 42.45C53.4739 42.45 53.7905 42.5033 54.0672 42.61C54.3472 42.7167 54.5689 42.8817 54.7322 43.105C54.8955 43.3283 54.9772 43.6083 54.9772 43.945V44.555ZM52.6072 44.65C52.6072 44.7867 52.6522 44.8917 52.7422 44.965C52.8355 45.0383 52.9605 45.075 53.1172 45.075C53.2739 45.075 53.3972 45.0383 53.4872 44.965C53.5805 44.8883 53.6272 44.7817 53.6272 44.645V43.855C53.6272 43.7183 53.5805 43.6133 53.4872 43.54C53.3972 43.4633 53.2739 43.425 53.1172 43.425C52.9605 43.425 52.8355 43.4617 52.7422 43.535C52.6522 43.6083 52.6072 43.7133 52.6072 43.85V44.65ZM58.9302 42.5C58.9669 42.5 58.9986 42.5133 59.0252 42.54C59.0519 42.5667 59.0652 42.5983 59.0652 42.635V45.865C59.0652 45.9017 59.0519 45.9333 59.0252 45.96C58.9986 45.9867 58.9669 46 58.9302 46H58.1252C58.0452 46 57.9786 45.965 57.9252 45.895L56.8352 44.505V45.865C56.8352 45.9017 56.8219 45.9333 56.7952 45.96C56.7686 45.9867 56.7369 46 56.7002 46H55.7702C55.7336 46 55.7019 45.9867 55.6752 45.96C55.6486 45.9333 55.6352 45.9017 55.6352 45.865V42.635C55.6352 42.5983 55.6486 42.5667 55.6752 42.54C55.7019 42.5133 55.7336 42.5 55.7702 42.5H56.5802C56.6602 42.5 56.7252 42.5333 56.7752 42.6L57.8652 44.105V42.635C57.8652 42.5983 57.8786 42.5667 57.9052 42.54C57.9319 42.5133 57.9636 42.5 58.0002 42.5H58.9302ZM63.3283 44.545C63.3283 45.0517 63.1616 45.43 62.8283 45.68C62.4949 45.9267 62.0499 46.05 61.4933 46.05C61.0933 46.05 60.7516 45.9867 60.4683 45.86C60.1883 45.73 59.9766 45.5667 59.8333 45.37C59.6933 45.1733 59.6233 44.975 59.6233 44.775C59.6233 44.745 59.6333 44.72 59.6533 44.7C59.6766 44.6767 59.7033 44.665 59.7333 44.665H60.8633C60.8933 44.665 60.9183 44.675 60.9383 44.695C60.9616 44.715 60.9783 44.7417 60.9883 44.775C61.0516 44.975 61.2116 45.075 61.4683 45.075C61.6249 45.075 61.7483 45.0383 61.8383 44.965C61.9316 44.8917 61.9783 44.7867 61.9783 44.65V43.525H60.1533C60.1166 43.525 60.0849 43.5117 60.0583 43.485C60.0316 43.4583 60.0183 43.4267 60.0183 43.39V42.635C60.0183 42.5983 60.0316 42.5667 60.0583 42.54C60.0849 42.5133 60.1166 42.5 60.1533 42.5H63.1933C63.2299 42.5 63.2616 42.5133 63.2883 42.54C63.3149 42.5667 63.3283 42.5983 63.3283 42.635V44.545ZM65.1413 45.83C65.098 45.9433 65.023 46 64.9163 46H63.9713C63.9413 46 63.9147 45.99 63.8913 45.97C63.8713 45.9467 63.8613 45.92 63.8613 45.89L63.8663 45.86L64.9563 42.665C64.9697 42.6217 64.9947 42.5833 65.0313 42.55C65.068 42.5167 65.118 42.5 65.1813 42.5H66.5713C66.6347 42.5 66.6847 42.5167 66.7213 42.55C66.758 42.5833 66.783 42.6217 66.7963 42.665L67.8863 45.86L67.8913 45.89C67.8913 45.92 67.8797 45.9467 67.8563 45.97C67.8363 45.99 67.8113 46 67.7813 46H66.8363C66.7297 46 66.6547 45.9433 66.6113 45.83L66.4863 45.48H65.2663L65.1413 45.83ZM65.8763 43.465L65.5213 44.505H66.2313L65.8763 43.465Z" fill="white"/>
</svg>
